<?xml version="1.0" encoding="utf-8"?>
<!-- Generator: Adobe Illustrator 15.1.0, SVG Export Plug-In . SVG Version: 6.00 Build 0)  -->
<!DOCTYPE svg PUBLIC "-//W3C//DTD SVG 1.1//EN" "http://www.w3.org/Graphics/SVG/1.1/DTD/svg11.dtd">
<svg version="1.1" id="レイヤー_1" xmlns="http://www.w3.org/2000/svg" xmlns:xlink="http://www.w3.org/1999/xlink" x="0px"
	 y="0px" width="100px" height="100px" viewBox="0 0 100 100" enable-background="new 0 0 100 100" xml:space="preserve">
<g>
	<path d="M23.37,0.224c-4.774,2.556-9.261,5.837-13.289,9.866c-4.028,4.028-7.311,8.514-9.866,13.289
		c10.002-3.668,21.663-1.494,29.691,6.535C21.877,21.884,19.703,10.225,23.37,0.224z"/>
	<path d="M69.828,29.906c8.117-8.112,19.946-10.24,30.02-6.4c-2.565-4.823-5.874-9.353-9.937-13.416
		c-4.122-4.123-8.727-7.473-13.626-10.054C80.048,10.075,77.901,21.827,69.828,29.906z"/>
	<path d="M69.821,69.828c-11.021-11.021-11.022-28.883-0.007-39.907c-11.023,11.015-28.888,11.012-39.909-0.008
		c11.022,11.023,11.022,28.893,0,39.915c-8.079,8.079-19.833,10.229-29.878,6.464c2.58,4.902,5.932,9.504,10.054,13.626
		c4.093,4.093,8.659,7.422,13.521,9.996c-3.801-10.062-1.663-21.853,6.436-29.951c11.023-11.023,28.893-11.023,39.914-0.002
		c8.1,8.101,10.24,19.892,6.437,29.953c4.862-2.572,9.429-5.903,13.523-9.996c4.157-4.157,7.527-8.803,10.116-13.75
		C89.913,80.104,77.987,77.995,69.821,69.828z"/>
</g>
</svg>
